<svg width="25" height="23" viewBox="0 0 25 23" fill="none" xmlns="http://www.w3.org/2000/svg">
<mask id="mask0_48_32" style="mask-type:alpha" maskUnits="userSpaceOnUse" x="0" y="0" width="25" height="23">
<rect width="25" height="22.7273" fill="#D9D9D9"/>
</mask>
<g mask="url(#mask0_48_32)">
<path d="M12.5 16.714L8.59375 20.2651C8.19444 20.6281 7.70833 20.8096 7.13542 20.8096C6.5625 20.8096 6.07639 20.6281 5.67708 20.2651L2.70833 17.5663C2.30903 17.2033 2.10938 16.7614 2.10938 16.2405C2.10938 15.7197 2.30903 15.2778 2.70833 14.9148L6.61458 11.3636L2.70833 7.81249C2.30903 7.44948 2.10938 7.00756 2.10938 6.48673C2.10938 5.9659 2.30903 5.52398 2.70833 5.16097L5.67708 2.46211C6.07639 2.09911 6.5625 1.9176 7.13542 1.9176C7.70833 1.9176 8.19444 2.09911 8.59375 2.46211L12.5 6.01325L16.4063 2.46211C16.8056 2.09911 17.2917 1.9176 17.8646 1.9176C18.4375 1.9176 18.9236 2.09911 19.3229 2.46211L22.2917 5.16097C22.691 5.52398 22.8906 5.9659 22.8906 6.48673C22.8906 7.00756 22.691 7.44948 22.2917 7.81249L18.3854 11.3636L22.2917 14.9148C22.691 15.2778 22.8906 15.7197 22.8906 16.2405C22.8906 16.7614 22.691 17.2033 22.2917 17.5663L19.3229 20.2651C18.9236 20.6281 18.4375 20.8096 17.8646 20.8096C17.2917 20.8096 16.8056 20.6281 16.4063 20.2651L12.5 16.714ZM12.5 10.4167C12.7951 10.4167 13.0425 10.3259 13.2422 10.1444C13.4418 9.9629 13.5417 9.73799 13.5417 9.46969C13.5417 9.20138 13.4418 8.97647 13.2422 8.79497C13.0425 8.61347 12.7951 8.52272 12.5 8.52272C12.2049 8.52272 11.9575 8.61347 11.7578 8.79497C11.5582 8.97647 11.4583 9.20138 11.4583 9.46969C11.4583 9.73799 11.5582 9.9629 11.7578 10.1444C11.9575 10.3259 12.2049 10.4167 12.5 10.4167ZM8.07292 10.0379L11.0417 7.339L7.13542 3.78787L4.16667 6.48673L8.07292 10.0379ZM10.4167 12.3106C10.7118 12.3106 10.9592 12.2198 11.1589 12.0383C11.3585 11.8568 11.4583 11.6319 11.4583 11.3636C11.4583 11.0953 11.3585 10.8704 11.1589 10.6889C10.9592 10.5074 10.7118 10.4167 10.4167 10.4167C10.1215 10.4167 9.87413 10.5074 9.67448 10.6889C9.47483 10.8704 9.375 11.0953 9.375 11.3636C9.375 11.6319 9.47483 11.8568 9.67448 12.0383C9.87413 12.2198 10.1215 12.3106 10.4167 12.3106ZM12.5 14.2045C12.7951 14.2045 13.0425 14.1138 13.2422 13.9323C13.4418 13.7508 13.5417 13.5259 13.5417 13.2576C13.5417 12.9893 13.4418 12.7644 13.2422 12.5828C13.0425 12.4013 12.7951 12.3106 12.5 12.3106C12.2049 12.3106 11.9575 12.4013 11.7578 12.5828C11.5582 12.7644 11.4583 12.9893 11.4583 13.2576C11.4583 13.5259 11.5582 13.7508 11.7578 13.9323C11.9575 14.1138 12.2049 14.2045 12.5 14.2045ZM14.5833 12.3106C14.8785 12.3106 15.1259 12.2198 15.3255 12.0383C15.5252 11.8568 15.625 11.6319 15.625 11.3636C15.625 11.0953 15.5252 10.8704 15.3255 10.6889C15.1259 10.5074 14.8785 10.4167 14.5833 10.4167C14.2882 10.4167 14.0408 10.5074 13.8411 10.6889C13.6415 10.8704 13.5417 11.0953 13.5417 11.3636C13.5417 11.6319 13.6415 11.8568 13.8411 12.0383C14.0408 12.2198 14.2882 12.3106 14.5833 12.3106ZM13.9583 15.3882L17.8646 18.9394L20.8333 16.2405L16.9271 12.6894L13.9583 15.3882Z" fill="#2E2E2E"/>
</g>
</svg>
